<svg xmlns="http://www.w3.org/2000/svg" xmlns:xlink="http://www.w3.org/1999/xlink" width="1080" zoomAndPan="magnify" viewBox="0 0 810 675.000002" height="900" preserveAspectRatio="xMidYMid meet" version="1.0"><defs><clipPath id="a56ec8bc8a"><path d="M 35 0 L 775.699219 0 L 775.699219 667 L 35 667 Z M 35 0 " clip-rule="nonzero"/></clipPath></defs><path fill="#de923a" d="M 726.355469 86.90625 L 726.355469 185.597656 L 84.878906 185.597656 L 84.878906 37.5625 C 84.878906 23.925781 95.914062 12.890625 109.550781 12.890625 L 356.273438 12.890625 C 369.910156 12.890625 380.945312 23.925781 380.945312 37.5625 C 380.945312 51.199219 391.980469 62.234375 405.617188 62.234375 L 701.683594 62.234375 C 715.320312 62.234375 726.355469 73.269531 726.355469 86.90625 " fill-opacity="1" fill-rule="nonzero"/><path fill="#f0f2f3" d="M 677.011719 185.597656 L 134.222656 185.597656 L 134.222656 136.253906 C 134.222656 122.617188 145.257812 111.582031 158.894531 111.582031 L 652.339844 111.582031 C 665.976562 111.582031 677.011719 122.617188 677.011719 136.253906 L 677.011719 185.597656 " fill-opacity="1" fill-rule="nonzero"/><path fill="#f9b149" d="M 694.261719 654.371094 L 116.96875 654.371094 C 104.296875 654.371094 93.648438 644.78125 92.394531 632.15625 L 48.011719 188.054688 C 46.519531 173.550781 57.941406 160.925781 72.542969 160.925781 L 738.691406 160.925781 C 753.292969 160.925781 764.664062 173.550781 763.21875 188.054688 L 718.839844 632.15625 C 717.585938 644.78125 706.9375 654.371094 694.261719 654.371094 " fill-opacity="1" fill-rule="nonzero"/><path fill="#d4d9de" d="M 504.304688 592.691406 L 306.925781 592.691406 C 293.289062 592.691406 282.253906 581.65625 282.253906 568.015625 L 282.253906 370.640625 C 282.253906 357 293.289062 345.96875 306.925781 345.96875 L 504.304688 345.96875 C 517.941406 345.96875 528.976562 357 528.976562 370.640625 L 528.976562 568.015625 C 528.976562 581.65625 517.941406 592.691406 504.304688 592.691406 " fill-opacity="1" fill-rule="nonzero"/><path fill="#848d99" d="M 454.960938 444.65625 C 454.960938 471.929688 432.890625 494 405.617188 494 C 378.34375 494 356.273438 471.929688 356.273438 444.65625 C 356.273438 417.382812 378.34375 395.3125 405.617188 395.3125 C 432.890625 395.3125 454.960938 417.382812 454.960938 444.65625 " fill-opacity="1" fill-rule="nonzero"/><g clip-path="url(#a56ec8bc8a)"><path fill="#2b2c2d" d="M 63.386719 177.308594 C 65.746094 174.707031 69.023438 173.261719 72.542969 173.261719 L 738.691406 173.261719 C 742.210938 173.261719 745.4375 174.707031 747.847656 177.308594 C 750.210938 179.910156 751.316406 183.332031 750.980469 186.800781 L 706.550781 630.949219 C 705.925781 637.261719 700.625 642.035156 694.261719 642.035156 L 116.96875 642.035156 C 110.5625 642.035156 105.308594 637.261719 104.683594 630.949219 L 60.253906 186.851562 C 59.914062 183.332031 61.023438 179.910156 63.386719 177.308594 Z M 146.558594 136.253906 C 146.558594 129.457031 152.101562 123.917969 158.894531 123.917969 L 652.339844 123.917969 C 659.132812 123.917969 664.675781 129.457031 664.675781 136.253906 L 664.675781 148.589844 L 146.558594 148.589844 Z M 116.96875 666.707031 L 694.261719 666.707031 C 713.394531 666.707031 729.199219 652.394531 731.125 633.410156 L 775.507812 189.257812 C 776.566406 178.898438 773.097656 168.492188 766.113281 160.730469 C 759.125 153.023438 749.101562 148.589844 738.691406 148.589844 L 738.691406 86.90625 C 738.691406 66.476562 722.117188 49.898438 701.683594 49.898438 L 405.617188 49.898438 C 398.824219 49.898438 393.28125 44.359375 393.28125 37.5625 C 393.28125 17.132812 376.703125 0.554688 356.273438 0.554688 L 109.550781 0.554688 C 89.117188 0.554688 72.542969 17.132812 72.542969 37.5625 L 72.542969 111.582031 C 72.542969 118.375 78.082031 123.917969 84.878906 123.917969 C 91.671875 123.917969 97.214844 118.375 97.214844 111.582031 L 97.214844 37.5625 C 97.214844 30.769531 102.753906 25.226562 109.550781 25.226562 L 356.273438 25.226562 C 363.066406 25.226562 368.609375 30.769531 368.609375 37.5625 C 368.609375 57.996094 385.183594 74.570312 405.617188 74.570312 L 701.683594 74.570312 C 708.476562 74.570312 714.019531 80.113281 714.019531 86.90625 L 714.019531 148.589844 L 689.347656 148.589844 L 689.347656 136.253906 C 689.347656 115.820312 672.769531 99.246094 652.339844 99.246094 L 158.894531 99.246094 C 138.460938 99.246094 121.886719 115.820312 121.886719 136.253906 L 121.886719 148.589844 L 72.542969 148.589844 C 62.132812 148.589844 52.109375 153.023438 45.121094 160.730469 C 38.085938 168.492188 34.664062 178.898438 35.726562 189.257812 L 80.105469 633.359375 C 82.035156 652.394531 97.839844 666.707031 116.96875 666.707031 " fill-opacity="1" fill-rule="nonzero"/></g><path fill="#2b2c2d" d="M 294.589844 370.640625 C 294.589844 363.84375 300.132812 358.304688 306.925781 358.304688 L 504.304688 358.304688 C 511.101562 358.304688 516.640625 363.84375 516.640625 370.640625 L 516.640625 568.015625 C 516.640625 574.8125 511.101562 580.351562 504.304688 580.351562 L 306.925781 580.351562 C 300.132812 580.351562 294.589844 574.8125 294.589844 568.015625 Z M 356.273438 284.285156 C 356.273438 257.058594 378.390625 234.941406 405.617188 234.941406 C 432.84375 234.941406 454.960938 257.058594 454.960938 284.285156 L 454.960938 333.628906 L 356.273438 333.628906 Z M 306.925781 605.027344 L 504.304688 605.027344 C 524.738281 605.027344 541.3125 588.449219 541.3125 568.015625 L 541.3125 370.640625 C 541.3125 350.207031 524.738281 333.628906 504.304688 333.628906 L 479.632812 333.628906 L 479.632812 284.285156 C 479.632812 243.472656 446.433594 210.269531 405.617188 210.269531 C 364.800781 210.269531 331.601562 243.472656 331.601562 284.285156 L 331.601562 333.628906 L 306.925781 333.628906 C 286.496094 333.628906 269.917969 350.207031 269.917969 370.640625 L 269.917969 568.015625 C 269.917969 588.449219 286.496094 605.027344 306.925781 605.027344 " fill-opacity="1" fill-rule="nonzero"/><path fill="#2b2c2d" d="M 393.28125 505.082031 L 393.28125 543.34375 C 393.28125 550.140625 398.824219 555.679688 405.617188 555.679688 C 412.410156 555.679688 417.953125 550.140625 417.953125 543.34375 L 417.953125 494 C 417.953125 487.207031 412.410156 481.664062 405.617188 481.664062 C 385.183594 481.664062 368.609375 465.085938 368.609375 444.65625 C 368.609375 424.222656 385.183594 407.648438 405.617188 407.648438 C 426.046875 407.648438 442.625 424.222656 442.625 444.65625 C 442.625 451.449219 448.167969 456.992188 454.960938 456.992188 C 461.753906 456.992188 467.296875 451.449219 467.296875 444.65625 C 467.296875 410.636719 439.636719 382.976562 405.617188 382.976562 C 371.597656 382.976562 343.9375 410.636719 343.9375 444.65625 C 343.9375 474.4375 365.140625 499.347656 393.28125 505.082031 " fill-opacity="1" fill-rule="nonzero"/></svg>